<svg xmlns="http://www.w3.org/2000/svg" viewBox="0 0 400 240">
  <defs>
    <linearGradient id="bg" x1="0%" y1="0%" x2="100%" y2="100%">
      <stop offset="0%" style="stop-color:#0d9488;stop-opacity:1"/>
      <stop offset="100%" style="stop-color:#5eead4;stop-opacity:1"/>
    </linearGradient>
  </defs>
  <rect width="400" height="240" rx="16" fill="url(#bg)"/>
  <!-- Briefcase icon -->
  <rect x="155" y="70" width="90" height="65" rx="8" fill="rgba(255,255,255,0.25)" stroke="white" stroke-width="2"/>
  <path d="M180,70 V60 a10,10 0 0 1 10,-10 h20 a10,10 0 0 1 10,10 V70" fill="none" stroke="white" stroke-width="2"/>
  <line x1="155" y1="95" x2="245" y2="95" stroke="white" stroke-width="1.5"/>
  <rect x="192" y="88" width="16" height="14" rx="3" fill="white" opacity="0.8"/>
  <!-- Upward arrow -->
  <line x1="290" y1="120" x2="290" y2="60" stroke="rgba(255,255,255,0.5)" stroke-width="2" stroke-linecap="round"/>
  <polyline points="280,72 290,60 300,72" fill="none" stroke="rgba(255,255,255,0.5)" stroke-width="2" stroke-linecap="round" stroke-linejoin="round"/>
  <!-- Sparkles -->
  <circle cx="110" cy="60" r="3" fill="rgba(255,255,255,0.4)"/>
  <circle cx="320" cy="100" r="2.5" fill="rgba(255,255,255,0.5)"/>
  <circle cx="120" cy="130" r="2" fill="rgba(255,255,255,0.3)"/>
  <!-- Label -->
  <text x="200" y="185" text-anchor="middle" fill="white" font-family="-apple-system,BlinkMacSystemFont,sans-serif" font-size="18" font-weight="600" opacity="0.95">Career Templates</text>
</svg>